<svg width="84" height="73" viewBox="0 0 84 73" fill="none" xmlns="http://www.w3.org/2000/svg">
<ellipse cx="41.8363" cy="36.5" rx="41.8363" ry="36.5" fill="#7051EF"/>
<path d="M17.6562 43.0349H26.2928V45H15.2405V26.7756H17.6562V43.0349ZM28.0576 38.1033C28.0576 36.7765 28.3163 35.5832 28.8337 34.5235C29.3594 33.4637 30.0854 32.646 31.0116 32.0702C31.9462 31.4944 33.0101 31.2065 34.2034 31.2065C36.0475 31.2065 37.537 31.8449 38.6718 33.1216C39.815 34.3983 40.3866 36.0964 40.3866 38.2159V38.3786C40.3866 39.6971 40.1321 40.882 39.6231 41.9334C39.1224 42.9765 38.4007 43.79 37.4577 44.3742C36.5231 44.9583 35.4467 45.2503 34.2284 45.2503C32.3926 45.2503 30.9031 44.612 29.7599 43.3353C28.6251 42.0586 28.0576 40.3688 28.0576 38.266V38.1033ZM30.3858 38.3786C30.3858 39.8807 30.7321 41.0864 31.4247 41.996C32.1256 42.9055 33.0602 43.3603 34.2284 43.3603C35.405 43.3603 36.3396 42.9014 37.0322 41.9835C37.7247 41.0572 38.071 39.7638 38.071 38.1033C38.071 36.618 37.7164 35.4163 37.0071 34.4984C36.3062 33.5722 35.3716 33.1091 34.2034 33.1091C33.0602 33.1091 32.1381 33.5639 31.4372 34.4734C30.7362 35.383 30.3858 36.6847 30.3858 38.3786ZM42.7398 38.1158C42.7398 36.0046 43.2279 34.3274 44.2043 33.0841C45.1806 31.8324 46.474 31.2065 48.0844 31.2065C49.7367 31.2065 51.0259 31.7907 51.9521 32.9589L52.0648 31.4569H54.1801V44.6746C54.1801 46.4269 53.6586 47.8079 52.6155 48.8176C51.5808 49.8273 50.1873 50.3321 48.4349 50.3321C47.4586 50.3321 46.5032 50.1235 45.5686 49.7063C44.634 49.2891 43.9205 48.7175 43.4282 47.9915L44.6298 46.6021C45.6228 47.8288 46.8369 48.4421 48.2722 48.4421C49.3987 48.4421 50.2749 48.125 50.9007 47.4908C51.5349 46.8567 51.852 45.9638 51.852 44.8122V43.6482C50.9257 44.7163 49.6616 45.2503 48.0594 45.2503C46.474 45.2503 45.1889 44.612 44.2043 43.3353C43.2279 42.0586 42.7398 40.3187 42.7398 38.1158ZM45.0679 38.3786C45.0679 39.9057 45.3808 41.1073 46.0067 41.9835C46.6325 42.8513 47.5087 43.2852 48.6352 43.2852C50.0955 43.2852 51.1677 42.6218 51.852 41.295V35.1118C51.1427 33.8184 50.0788 33.1717 48.6602 33.1717C47.5337 33.1717 46.6534 33.6098 46.0192 34.4859C45.385 35.3621 45.0679 36.6597 45.0679 38.3786ZM57.0715 38.1033C57.0715 36.7765 57.3301 35.5832 57.8475 34.5235C58.3732 33.4637 59.0992 32.646 60.0254 32.0702C60.96 31.4944 62.0239 31.2065 63.2172 31.2065C65.0613 31.2065 66.5508 31.8449 67.6857 33.1216C68.8289 34.3983 69.4005 36.0964 69.4005 38.2159V38.3786C69.4005 39.6971 69.146 40.882 68.6369 41.9334C68.1363 42.9765 67.4145 43.79 66.4715 44.3742C65.537 44.9583 64.4605 45.2503 63.2422 45.2503C61.4064 45.2503 59.9169 44.612 58.7737 43.3353C57.6389 42.0586 57.0715 40.3688 57.0715 38.266V38.1033ZM59.3996 38.3786C59.3996 39.8807 59.7459 41.0864 60.4385 41.996C61.1394 42.9055 62.074 43.3603 63.2422 43.3603C64.4188 43.3603 65.3534 42.9014 66.046 41.9835C66.7386 41.0572 67.0849 39.7638 67.0849 38.1033C67.0849 36.618 66.7302 35.4163 66.0209 34.4984C65.32 33.5722 64.3854 33.1091 63.2172 33.1091C62.074 33.1091 61.1519 33.5639 60.451 34.4734C59.75 35.383 59.3996 36.6847 59.3996 38.3786Z" fill="white"/>
</svg>
